<svg xmlns="http://www.w3.org/2000/svg" viewBox="0 0 96 96"><g><rect x="10" y="12" width="16" height="14" rx="3.5" fill="#6db56f"/><rect x="30" y="12" width="16" height="14" rx="3.5" fill="#e2a53d"/><rect x="50" y="12" width="16" height="14" rx="3.5" fill="#5a8fd6"/><rect x="70" y="12" width="16" height="14" rx="3.5" fill="#c96bb4"/><rect x="10" y="31" width="16" height="14" rx="3.5" fill="#6db56f"/><rect x="30" y="31" width="16" height="14" rx="3.5" fill="#e2a53d"/><rect x="50" y="31" width="16" height="14" rx="3.5" fill="#5a8fd6"/><rect x="70" y="31" width="16" height="14" rx="3.5" fill="#c96bb4"/><rect x="10" y="50" width="16" height="14" rx="3.5" fill="#6db56f"/><rect x="50" y="50" width="16" height="14" rx="3.5" fill="#5a8fd6"/><rect x="70" y="50" width="16" height="14" rx="3.5" fill="#c96bb4"/><rect x="10" y="69" width="16" height="14" rx="3.5" fill="#6db56f"/><rect x="30" y="69" width="16" height="14" rx="3.5" fill="#e2a53d"/><rect x="50" y="69" width="16" height="14" rx="3.5" fill="#5a8fd6"/><rect x="70" y="69" width="16" height="14" rx="3.5" fill="#c96bb4"/><rect x="32.5" y="53.5" width="11" height="7" rx="3.5" fill="rgba(255,255,255,0.35)"/></g></svg>
